#!OML:ASF H:\Punching\Project 1\Capture day 1\Session 1\female.ASF
:FULLY-SPECIFIED
:DEGREES
1
root 0.391779 15.8097 -5.17966 11.2187 0.926951 -0.452203
lowerback -9.06372 -1.05669 0.408321
upperback -7.75946 -1.4245 0.38812
thorax -2.98059 -0.723585 0.0838248
lowerneck -14.5997 3.65161 8.69077
upperneck 39.5185 5.04448 -5.54501
head 17.3308 2.63463 -3.13626
rclavicle -9.68454e-015 3.72721e-015
rhumerus -53.1132 -4.62156 -81.452
rradius 28.9405
rwrist -11.7932
rhand -8.21821 -18.8201
rfingers 7.12502
rthumb 17.6989 -48.0346
lclavicle -9.68454e-015 3.72721e-015
lhumerus -52.2656 1.76816 83.9563
lradius 32.563
lwrist -19.3037
lhand -2.74172 12.633
lfingers 7.12502
lthumb 22.9618 41.2855
rfemur -16.9067 6.40834 20.8861
rtibia 24.7822
rfoot -17.5168 -15.8274
rtoes 3.91648
lfemur -15.9167 -10.2076 -20.3186
ltibia 21.3804
lfoot -15.6463 14.7366
ltoes 4.14111
2
root 0.397494 15.8092 -5.17979 11.1518 0.64033 -0.32077
lowerback -9.02892 -1.06377 0.234876
upperback -7.72239 -1.4239 0.410776
thorax -2.95557 -0.715494 0.204541
lowerneck -14.5331 3.67989 8.7293
upperneck 39.5098 5.06739 -5.52281
head 17.3125 2.65277 -3.12883
rclavicle -1.17718e-014 -1.93815e-015
rhumerus -52.5741 -4.44088 -80.7868
rradius 29.1706
rwrist -12.2675
rhand -7.2679 -17.4167
rfingers 7.12502
rthumb 18.6132 -46.5462
lclavicle -1.17718e-014 -1.93815e-015
lhumerus -52.3219 1.70214 84.1645
lradius 32.7596
lwrist -19.5031
lhand -2.47875 12.4139
lfingers 7.12502
lthumb 23.2141 41.0348
rfemur -16.9632 6.4988 20.6982
rtibia 24.9781
rfoot -17.6302 -15.7177
rtoes 3.8558
lfemur -15.6841 -10.117 -20.5291
ltibia 21.1546
lfoot -15.5836 14.8627
ltoes 4.20764
3
root 0.403947 15.8068 -5.18193 11.0716 0.365035 -0.218027
lowerback -8.92381 -1.05687 0.117431
upperback -7.72851 -1.40799 0.425609
thorax -3.01644 -0.70233 0.288833
lowerneck -14.4177 3.68531 8.78772
upperneck 39.5275 5.06374 -5.52408
head 17.2951 2.66112 -3.14229
rclavicle -5.90142e-015 -2.38542e-015
rhumerus -52.0424 -4.13209 -80.2639
rradius 29.2925
rwrist -11.9453
rhand -6.15816 -17.5052
rfingers 7.12502
rthumb 19.6803 -46.529
lclavicle -5.90142e-015 -2.38542e-015
lhumerus -52.4195 1.54157 84.4208
lradius 32.9479
lwrist -19.5847
lhand -2.39851 12.3209
lfingers 7.12502
lthumb 23.2911 40.9321
rfemur -16.9876 6.61323 20.5358
rtibia 25.1014
rfoot -17.6922 -15.634
rtoes 3.72997
lfemur -15.4881 -10.017 -20.7164
ltibia 21.0172
lfoot -15.5322 15.01
ltoes 4.1337
4
root 0.410417 15.8062 -5.18135 10.9846 0.0949677 -0.193554
lowerback -8.91526 -1.0384 0.0898598
upperback -7.66065 -1.38239 0.447852
thorax -2.9484 -0.688074 0.328057
lowerneck -14.3864 3.68344 8.83135
upperneck 39.5219 5.04128 -5.51854
head 17.2832 2.65854 -3.15215
rclavicle -3.50358e-015 5.76476e-015
rhumerus -51.4498 -3.28286 -80.3061
rradius 29.3745
rwrist -9.2516
rhand -5.6842 -17.6184
rfingers 7.12502
rthumb 20.1359 -46.5949
lclavicle -3.50358e-015 5.76476e-015
lhumerus -52.3544 1.44305 84.5669
lradius 33.1485
lwrist -19.6811
lhand -2.34922 12.2914
lfingers 7.12502
lthumb 23.3384 40.8966
rfemur -16.9872 6.63004 20.4689
rtibia 25.2336
rfoot -17.8127 -15.4452
rtoes 3.48689
lfemur -15.2736 -9.8926 -20.8175
ltibia 20.861
lfoot -15.5184 15.1103
ltoes 4.3353
5
root 0.416657 15.8051 -5.18239 10.9034 -0.189811 -0.11955
lowerback -8.8638 -1.02614 0.00405853
upperback -7.62605 -1.36159 0.462633
thorax -2.93788 -0.673926 0.393187
lowerneck -14.3162 3.68411 8.86487
upperneck 39.5217 5.02425 -5.49841
head 17.2639 2.65931 -3.15281
rclavicle 9.31803e-016 1.12313e-014
rhumerus -50.8743 -2.64983 -80.1131
rradius 29.3965
rwrist -6.96306
rhand -5.03404 -17.3753
rfingers 7.12502
rthumb 20.7607 -46.2847
lclavicle 9.31803e-016 1.12313e-014
lhumerus -52.3521 1.36879 84.7031
lradius 33.3541
lwrist -19.7615
lhand -2.28946 12.2061
lfingers 7.12502
lthumb 23.3957 40.804
rfemur -17.0023 6.6999 20.341
rtibia 25.3562
rfoot -17.9051 -15.2955
rtoes 3.32026
lfemur -15.0745 -9.77301 -20.9727
ltibia 20.7178
lfoot -15.4946 15.2344
ltoes 4.3876
6
root 0.42296 15.8041 -5.18394 10.819 -0.481759 -0.0411937
lowerback -8.80424 -1.01039 -0.0785253
upperback -7.59353 -1.33655 0.468372
thorax -2.93442 -0.658036 0.447598
lowerneck -14.2418 3.68109 8.89994
upperneck 39.5245 5.0007 -5.47644
head 17.2445 2.65795 -3.15429
rclavicle -9.05713e-015 -8.54774e-015
rhumerus -50.2921 -1.99217 -79.9423
rradius 29.3142
rwrist -3.81581
rhand -4.45627 -16.975
rfingers 7.12502
rthumb 21.3158 -45.8227
lclavicle -9.05713e-015 -8.54774e-015
lhumerus -52.3349 1.31378 84.7922
lradius 33.5666
lwrist -19.7988
lhand -2.27354 12.1333
lfingers 7.12502
lthumb 23.411 40.7292
rfemur -17.0112 6.77735 20.206
rtibia 25.4641
rfoot -17.9911 -15.1394
rtoes 3.15378
lfemur -14.878 -9.65484 -21.1338
ltibia 20.5821
lfoot -15.4741 15.369
ltoes 4.43329
7
root 0.429363 15.8032 -5.18587 10.732 -0.777372 0.0434011
lowerback -8.74179 -0.993617 -0.159496
upperback -7.56174 -1.31044 0.466344
thorax -2.93366 -0.641892 0.493185
lowerneck -14.1635 3.67654 8.93261
upperneck 39.5304 4.97484 -5.4513
head 17.2253 2.65574 -3.15447
rclavicle -5.77718e-015 9.44227e-015
rhumerus -49.702 -1.37905 -79.7221
rradius 29.1366
rwrist -0.00103748
rhand -3.97555 -16.1823
rfingers 7.12502
rthumb 21.7774 -44.9771
lclavicle -5.77718e-015 9.44227e-015
lhumerus -52.2997 1.28731 84.8301
lradius 33.7791
lwrist -19.7976
lhand -2.30131 12.0648
lfingers 7.12502
lthumb 23.3844 40.6642
rfemur -17.0213 6.86062 20.0626
rtibia 25.5733
rfoot -18.0761 -14.9813
rtoes 2.99425
lfemur -14.6795 -9.54382 -21.302
ltibia 20.4429
lfoot -15.4502 15.5143
ltoes 4.48535
8
root 0.435939 15.8024 -5.18816 10.6464 -1.06989 0.11434
lowerback -8.68002 -0.973706 -0.214254
upperback -7.53204 -1.2818 0.459538
thorax -2.93554 -0.625722 0.519298
lowerneck -14.0862 3.67005 8.96671
upperneck 39.5451 4.94542 -5.42517
head 17.211 2.65251 -3.15543
rclavicle -1.08835e-014 -1.49089e-015
rhumerus -49.0968 -0.891667 -79.3882
rradius 28.8771
rwrist 4.25915
rhand -3.58112 -14.9901
rfingers 7.12502
rthumb 22.1562 -43.7405
lclavicle -1.08835e-014 -1.49089e-015
lhumerus -52.2453 1.28368 84.8178
lradius 33.9839
lwrist -19.7641
lhand -2.36955 12.0012
lfingers 7.12502
lthumb 23.3189 40.6088
rfemur -17.0224 6.95327 19.9336
rtibia 25.6548
rfoot -18.142 -14.8281
rtoes 2.84741
lfemur -14.5041 -9.44417 -21.4535
ltibia 20.3356
lfoot -15.4333 15.6762
ltoes 4.50863
9
root 0.4429 15.8017 -5.19032 10.5661 -1.35223 0.151001
lowerback -8.63108 -0.948932 -0.217242
upperback -7.50244 -1.24967 0.452614
thorax -2.93164 -0.609999 0.516251
lowerneck -14.0116 3.66158 9.00228
upperneck 39.5708 4.91344 -5.40064
head 17.2034 2.64838 -3.15828
rclavicle -3.71479e-015 3.37934e-015
rhumerus -48.4778 -0.553357 -78.9334
rradius 28.5834
rwrist 8.65796
rhand -3.33881 -13.4978
rfingers 7.12502
rthumb 22.3888 -42.2204
lclavicle -3.71479e-015 3.37934e-015
lhumerus -52.171 1.30156 84.7582
lradius 34.177
lwrist -19.7168
lhand -2.47189 11.9476
lfingers 7.12502
lthumb 23.2207 40.5677
rfemur -17.0079 7.0449 19.8425
rtibia 25.6941
rfoot -18.1819 -14.6742
rtoes 2.70388
lfemur -14.3644 -9.35422 -21.5651
ltibia 20.2817
lfoot -15.4387 15.8445
ltoes 4.55181
10
root 0.450214 15.8012 -5.19208 10.4983 -1.61445 0.135777
lowerback -8.60714 -0.919244 -0.15022
upperback -7.47082 -1.21483 0.450801
thorax -2.9132 -0.595752 0.478959
lowerneck -13.951 3.64943 9.03445
upperneck 39.6092 4.87573 -5.37506
head 17.2056 2.64153 -3.16149
rclavicle -7.30534e-015 -5.66536e-015
rhumerus -47.8366 -0.367719 -78.3768
rradius 28.2915
rwrist 12.8792
rhand -3.29567 -11.8877
rfingers 7.12502
rthumb 22.4302 -40.6053
lclavicle -7.30534e-015 -5.66536e-015
lhumerus -52.0669 1.33398 84.6572
lradius 34.3505
lwrist -19.6624
lhand -2.59687 11.9055
lfingers 7.12502
lthumb 23.1008 40.5407
rfemur -16.977 7.12862 19.8102
rtibia 25.6823
rfoot -18.1912 -14.5229
rtoes 2.55735
lfemur -14.274 -9.27338 -21.6158
ltibia 20.2949
lfoot -15.4723 16.0143
ltoes 4.57891
11
root 0.457922 15.8007 -5.19321 10.4486 -1.85709 0.0667017
lowerback -8.60921 -0.884133 -0.0120455
upperback -7.44383 -1.17669 0.456055
thorax -2.88657 -0.582617 0.408932
lowerneck -13.8962 3.63165 9.05757
upperneck 39.6604 4.8306 -5.34538
head 17.215 2.63096 -3.16299
rclavicle 5.71506e-016 -2.60408e-014
rhumerus -47.1875 -0.306757 -77.7549
rradius 28.037
rwrist 16.6914
rhand -3.42639 -10.3652
rfingers 7.12502
rthumb 22.3047 -39.0978
lclavicle 5.71506e-016 -2.60408e-014
lhumerus -51.9468 1.39017 84.5126
lradius 34.5058
lwrist -19.6175
lhand -2.71985 11.8802
lfingers 7.12502
lthumb 22.9828 40.5301
rfemur -16.9376 7.19892 19.8381
rtibia 25.6247
rfoot -18.1735 -14.3671
rtoes 2.41619
lfemur -14.2336 -9.18982 -21.6041
ltibia 20.3703
lfoot -15.5345 16.1739
ltoes 4.58772
12
root 0.465892 15.8004 -5.19373 10.4185 -2.08629 -0.03361
lowerback -8.63416 -0.845045 0.168824
upperback -7.42418 -1.13574 0.464833
thorax -2.85577 -0.569694 0.318528
lowerneck -13.8451 3.6091 9.06977
upperneck 39.722 4.77974 -5.31068
head 17.23 2.61721 -3.16164
rclavicle 8.69683e-016 -1.40143e-014
rhumerus -46.5374 -0.320984 -77.1274
rradius 27.8467
rwrist 19.8246
rhand -3.69851 -9.16678
rfingers 7.12502
rthumb 22.0434 -37.9305
lclavicle 8.69683e-016 -1.40143e-014
lhumerus -51.8136 1.46809 84.3316
lradius 34.6455
lwrist -19.5663
lhand -2.82767 11.8743
lfingers 7.12502
lthumb 22.8793 40.537
rfemur -16.9014 7.2583 19.8998
rtibia 25.5396
rfoot -18.1368 -14.2078
rtoes 2.28725
lfemur -14.2316 -9.10647 -21.5545
ltibia 20.4851
lfoot -15.6204 16.3236
ltoes 4.60536
